<mxfile host="app.diagrams.net" modified="2024-06-16T11:15:15.549Z" agent="Mozilla/5.0 (X11; Linux x86_64; rv:120.0) Gecko/20100101 Firefox/120.0" etag="UM4gMYK0-BNCyD0daxvl" version="24.5.4" type="device">
  <diagram name="Seite-1" id="rSoTGdgHjFY-zKC6oSOh">
    <mxGraphModel dx="1434" dy="907" grid="1" gridSize="10" guides="1" tooltips="1" connect="1" arrows="1" fold="1" page="1" pageScale="1" pageWidth="827" pageHeight="1169" math="0" shadow="0">
      <root>
        <mxCell id="0" />
        <mxCell id="1" parent="0" />
        <mxCell id="fQcaslo3YwZfLJPk02mK-29" value="" style="rounded=0;whiteSpace=wrap;html=1;strokeWidth=3;fillColor=#d5e8d4;strokeColor=#82b366;" parent="1" vertex="1">
          <mxGeometry x="40" y="390" width="660" height="410" as="geometry" />
        </mxCell>
        <mxCell id="fQcaslo3YwZfLJPk02mK-14" value="" style="rounded=0;whiteSpace=wrap;html=1;strokeWidth=3;fillColor=#dae8fc;strokeColor=#6c8ebf;" parent="1" vertex="1">
          <mxGeometry x="80" y="480" width="410" height="280" as="geometry" />
        </mxCell>
        <mxCell id="-tW-aOK4IKs2jvc2aL33-4" value="" style="rounded=0;whiteSpace=wrap;html=1;strokeWidth=3;dashed=1;" vertex="1" parent="1">
          <mxGeometry x="100" y="500" width="370" height="130" as="geometry" />
        </mxCell>
        <mxCell id="fQcaslo3YwZfLJPk02mK-11" value="" style="shape=image;verticalLabelPosition=bottom;labelBackgroundColor=default;verticalAlign=top;aspect=fixed;imageAspect=0;image=https://upload.wikimedia.org/wikipedia/commons/thumb/6/60/Nextcloud_Logo.svg/1200px-Nextcloud_Logo.svg.png;" parent="1" vertex="1">
          <mxGeometry x="360" y="530" width="84.61" height="60" as="geometry" />
        </mxCell>
        <mxCell id="fQcaslo3YwZfLJPk02mK-23" value="" style="shape=image;verticalLabelPosition=bottom;labelBackgroundColor=default;verticalAlign=top;aspect=fixed;imageAspect=0;image=data:image/png,iVBORw0KGgoAAAANSUhEUgAAAZoAAAB7CAMAAAB6t7bCAAAAkFBMVEX////UCS3TACLjcH/UACvWFTb87fDSAB3RAADkd4bpmaLSABn88PL99ffUACbwtL3sr7TWGjrXJEDSABPmgY/yzM/yvsbRAA3ZL0r33uDTACTplJ/aNk/eWmrtqbH65+rzxcvroKnpl6H21trgY3TxusLni5bmgpDcSFz00tXeXGzdUmPaPVP54uXjcoHYK0QKYv/DAAAFxUlEQVR4nO2c6XqqOhhGlaaiRVGLLQ6t0tq6d3en+7+7o5KJmJCAxOE57/oHhC8JS0ISgq0WAAAAAAAAAAAAAAAAAAAAAAAAAAAAAAAAAAAAAAAAAAAAAAAAAAAAADgb2U3Oi+H4Mj/8s6bbLzdOLGnyj55T8smMpr9zC89Km5Ul6i0ztTaO4Uc0+YMx9GKxeHlcq+EbpX8bBnu6D9rjD938cNjOt9/pto3u+z75YBw5JY9o+KVr+GFeehKWRk2S3kquzdA1fEZLbwwfbknSeNPx4ITSH5P2nkSv5jHJD7e7tHJR24lwUQxvg4YfVQvfmVsThkupNq7ho/ykwb2l9KQYvlmuVc1mn7wTW1OSpCdq07QaJXyzXKsaetfY1Wxr9sNr07yabfgbqCmEd75rdrF5o+NDTTs19aD+n2qSYQU1hLC+gBc1JPi+MDWklCT/KfVv4+J++YLJpHn4ZWIKWLwa85Wqpix9yNqckWPp06GiprREgZ8mrb6a8W0ZU/pLmrSL+0WFivvzBqo1M0X9Lajp0oGHpEY9IUgkbUFHVVNa+NvpSlGjSxTyugReutB11ZCnfqcMHqCwtz9L2Q95M9CmL+7lDF6lposk7OHB1QQ99cTV+3PKrx1toLia+LO89ANaGKYmeDhM38/uYyV8s9RVEz/Vy67L1NxVOk9+SMRRxnYLNX80J2W80WFNDlfz7JQrVxPOdIe/WaECLx3o61CzYKftcm6L6yTUTHSnzUJ2n93nO2qr0U/J9AIablqlMq5chZoFK8ROwlSaerGoaW2oGxLn2w2r4a07qVAZZ65BTU8yE/0dSEdsar7TYuk9qWHhm+UK1LxJZpSht01Nq1ss/ZWq+dAez86u5k3qASTK0762mn9OWdvUTOizhrWXzcLVxG89Hc9xsXK8eb2/0/M6Ks2usppP9ijf5nkwJVJXDXkylX4on23poa1idu3q/U4tiJmUWPtegg8n1CEnCQ10y9xUVvMlmUke1aN11ZSUPpPOFuMa3V2zvrflfhxVJ7nsc2h05tGQXTU1nWnA48bksMmtrcZIJJeLqyG/0wPGYkSbvLtUpioXrWb1JMwEY80kogc1cpvpOIdGbgfazI/kktWsYjE7E0511T+ZmlISP28FLljNui3MRPou1UWoidx64pXxoGZRlp27mg8izKSGSapTPWtKIOmbrSY1EWoCbY+FN/YHPTTLYhdDds5qMjHnTrom2/V7aJa1NDl2NXFEvHQBdnA1QU/b0f9hbtRxzVg7DNpSOkHurOZR9H9IaJRde1zzayj8T6Hnb1ETh8nU08vnHbbZgDNN1CwTflHieWZMdqrZgPZcGeXt+bfxukbwMufQXoSZOSmp/6nm0MhbvmhzmooRcDv01pTlXKSajXg9E3yVvdw9lZqY9dz7fyLRxhWeS81ziWo2Yqo5+iwdzZ1KzbzP942EG83MUZNcoBrp9Uxi6ZieQU1rmPLikTBzilOPy1MjvZ4pHSLtOIearRtx36Qe7xvvK2qU7KxqpNczwaTzvWd2AH0JXVuNZUUNPVuvptCmeXTjax3a10obzqrmpjBep+PAJFWJ8q5+/dmA8nVof3MVBjWtobixSejNjefVmwfZWdR8SEtnyoiU5eiV1VRbvamoKbRp3voCntc8H2RnUbOsuRy9sTm0HHXNs6pmexmkNk0/WD+aC1NT9yOOU6vZtmnCTezHDdTosKsptGlzL26gRoeDmsJ9Y5iAPI6zqXnVHq/66RP7ltOzmkCjpuAm0F+9o7B9AZ2xL6Dp2lHnb4j1c399drph3U3dL6C7hlcRYX48DPPNUbUvoFu/+ffbYaIN/hgm7ITIx/IA2/8G0P8J4P8bsHD78l5/U7Ra7/S4aZy/cQvPTDzQvyUwDWDZh//rauHZxVhP9ps90z0xnKhnAAAAAAAAAAAAAAAAAAAAAAAAAAAAAAAAAAAAAAAAAAAAAAAAAAAAAIAz8B8mfpBFOuM4MQAAAABJRU5ErkJggg==;" parent="1" vertex="1">
          <mxGeometry x="455" y="281" width="130" height="39" as="geometry" />
        </mxCell>
        <mxCell id="fQcaslo3YwZfLJPk02mK-27" value="" style="endArrow=none;startArrow=classic;html=1;rounded=0;entryX=0.5;entryY=1;entryDx=0;entryDy=0;strokeWidth=2;exitX=1;exitY=0.5;exitDx=0;exitDy=0;endFill=0;" parent="1" source="fQcaslo3YwZfLJPk02mK-11" target="fQcaslo3YwZfLJPk02mK-23" edge="1">
          <mxGeometry width="50" height="50" relative="1" as="geometry">
            <mxPoint x="590" y="310" as="sourcePoint" />
            <mxPoint x="770" y="360" as="targetPoint" />
            <Array as="points">
              <mxPoint x="520" y="560" />
            </Array>
          </mxGeometry>
        </mxCell>
        <mxCell id="-tW-aOK4IKs2jvc2aL33-44" value="data" style="edgeLabel;html=1;align=center;verticalAlign=middle;resizable=0;points=[];" vertex="1" connectable="0" parent="fQcaslo3YwZfLJPk02mK-27">
          <mxGeometry x="0.2644" y="-4" relative="1" as="geometry">
            <mxPoint x="-4" as="offset" />
          </mxGeometry>
        </mxCell>
        <mxCell id="fQcaslo3YwZfLJPk02mK-38" value="" style="verticalLabelPosition=bottom;aspect=fixed;html=1;shape=mxgraph.salesforce.data2;" parent="1" vertex="1">
          <mxGeometry x="287.79" y="409" width="60" height="60" as="geometry" />
        </mxCell>
        <mxCell id="fQcaslo3YwZfLJPk02mK-42" value="" style="sketch=0;outlineConnect=0;fontColor=#232F3E;gradientColor=none;fillColor=#DD344C;strokeColor=none;dashed=0;verticalLabelPosition=bottom;verticalAlign=top;align=center;html=1;fontSize=12;fontStyle=0;aspect=fixed;pointerEvents=1;shape=mxgraph.aws4.encrypted_data;" parent="1" vertex="1">
          <mxGeometry x="161" y="330" width="31.79" height="40" as="geometry" />
        </mxCell>
        <mxCell id="-tW-aOK4IKs2jvc2aL33-1" value="" style="shape=image;verticalLabelPosition=bottom;labelBackgroundColor=default;verticalAlign=top;aspect=fixed;imageAspect=0;image=data:image/png,iVBORw0KGgoAAAANSUhEUgAAAZoAAAB7CAMAAAB6t7bCAAAAkFBMVEX////UCS3TACLjcH/UACvWFTb87fDSAB3RAADkd4bpmaLSABn88PL99ffUACbwtL3sr7TWGjrXJEDSABPmgY/yzM/yvsbRAA3ZL0r33uDTACTplJ/aNk/eWmrtqbH65+rzxcvroKnpl6H21trgY3TxusLni5bmgpDcSFz00tXeXGzdUmPaPVP54uXjcoHYK0QKYv/DAAAFxUlEQVR4nO2c6XqqOhhGlaaiRVGLLQ6t0tq6d3en+7+7o5KJmJCAxOE57/oHhC8JS0ISgq0WAAAAAAAAAAAAAAAAAAAAAAAAAAAAAAAAAAAAAAAAAAAAAAAAAAAAADgb2U3Oi+H4Mj/8s6bbLzdOLGnyj55T8smMpr9zC89Km5Ul6i0ztTaO4Uc0+YMx9GKxeHlcq+EbpX8bBnu6D9rjD938cNjOt9/pto3u+z75YBw5JY9o+KVr+GFeehKWRk2S3kquzdA1fEZLbwwfbknSeNPx4ITSH5P2nkSv5jHJD7e7tHJR24lwUQxvg4YfVQvfmVsThkupNq7ho/ykwb2l9KQYvlmuVc1mn7wTW1OSpCdq07QaJXyzXKsaetfY1Wxr9sNr07yabfgbqCmEd75rdrF5o+NDTTs19aD+n2qSYQU1hLC+gBc1JPi+MDWklCT/KfVv4+J++YLJpHn4ZWIKWLwa85Wqpix9yNqckWPp06GiprREgZ8mrb6a8W0ZU/pLmrSL+0WFivvzBqo1M0X9Lajp0oGHpEY9IUgkbUFHVVNa+NvpSlGjSxTyugReutB11ZCnfqcMHqCwtz9L2Q95M9CmL+7lDF6lposk7OHB1QQ99cTV+3PKrx1toLia+LO89ANaGKYmeDhM38/uYyV8s9RVEz/Vy67L1NxVOk9+SMRRxnYLNX80J2W80WFNDlfz7JQrVxPOdIe/WaECLx3o61CzYKftcm6L6yTUTHSnzUJ2n93nO2qr0U/J9AIablqlMq5chZoFK8ROwlSaerGoaW2oGxLn2w2r4a07qVAZZ65BTU8yE/0dSEdsar7TYuk9qWHhm+UK1LxJZpSht01Nq1ss/ZWq+dAez86u5k3qASTK0762mn9OWdvUTOizhrWXzcLVxG89Hc9xsXK8eb2/0/M6Ks2usppP9ijf5nkwJVJXDXkylX4on23poa1idu3q/U4tiJmUWPtegg8n1CEnCQ10y9xUVvMlmUke1aN11ZSUPpPOFuMa3V2zvrflfhxVJ7nsc2h05tGQXTU1nWnA48bksMmtrcZIJJeLqyG/0wPGYkSbvLtUpioXrWb1JMwEY80kogc1cpvpOIdGbgfazI/kktWsYjE7E0511T+ZmlISP28FLljNui3MRPou1UWoidx64pXxoGZRlp27mg8izKSGSapTPWtKIOmbrSY1EWoCbY+FN/YHPTTLYhdDds5qMjHnTrom2/V7aJa1NDl2NXFEvHQBdnA1QU/b0f9hbtRxzVg7DNpSOkHurOZR9H9IaJRde1zzayj8T6Hnb1ETh8nU08vnHbbZgDNN1CwTflHieWZMdqrZgPZcGeXt+bfxukbwMufQXoSZOSmp/6nm0MhbvmhzmooRcDv01pTlXKSajXg9E3yVvdw9lZqY9dz7fyLRxhWeS81ziWo2Yqo5+iwdzZ1KzbzP942EG83MUZNcoBrp9Uxi6ZieQU1rmPLikTBzilOPy1MjvZ4pHSLtOIearRtx36Qe7xvvK2qU7KxqpNczwaTzvWd2AH0JXVuNZUUNPVuvptCmeXTjax3a10obzqrmpjBep+PAJFWJ8q5+/dmA8nVof3MVBjWtobixSejNjefVmwfZWdR8SEtnyoiU5eiV1VRbvamoKbRp3voCntc8H2RnUbOsuRy9sTm0HHXNs6pmexmkNk0/WD+aC1NT9yOOU6vZtmnCTezHDdTosKsptGlzL26gRoeDmsJ9Y5iAPI6zqXnVHq/66RP7ltOzmkCjpuAm0F+9o7B9AZ2xL6Dp2lHnb4j1c399drph3U3dL6C7hlcRYX48DPPNUbUvoFu/+ffbYaIN/hgm7ITIx/IA2/8G0P8J4P8bsHD78l5/U7Ra7/S4aZy/cQvPTDzQvyUwDWDZh//rauHZxVhP9ps90z0xnKhnAAAAAAAAAAAAAAAAAAAAAAAAAAAAAAAAAAAAAAAAAAAAAAAAAAAAAIAz8B8mfpBFOuM4MQAAAABJRU5ErkJggg==;" vertex="1" parent="1">
          <mxGeometry x="89" y="280.5" width="130" height="39" as="geometry" />
        </mxCell>
        <mxCell id="-tW-aOK4IKs2jvc2aL33-2" value="" style="shape=image;verticalLabelPosition=bottom;labelBackgroundColor=default;verticalAlign=top;aspect=fixed;imageAspect=0;image=https://miro.medium.com/v2/resize:fit:720/0*uJ7As9uTvB-gvQLe.png;" vertex="1" parent="1">
          <mxGeometry x="113" y="520" width="169.42" height="80" as="geometry" />
        </mxCell>
        <mxCell id="-tW-aOK4IKs2jvc2aL33-3" value="cron job" style="rounded=0;whiteSpace=wrap;html=1;fillColor=#f5f5f5;fontColor=#333333;strokeColor=#666666;" vertex="1" parent="1">
          <mxGeometry x="107.78999999999996" y="695" width="80" height="40" as="geometry" />
        </mxCell>
        <mxCell id="-tW-aOK4IKs2jvc2aL33-7" value="localhost" style="text;html=1;align=center;verticalAlign=middle;resizable=0;points=[];autosize=1;strokeColor=none;fillColor=none;" vertex="1" parent="1">
          <mxGeometry x="630" y="770" width="70" height="30" as="geometry" />
        </mxCell>
        <mxCell id="-tW-aOK4IKs2jvc2aL33-20" value="" style="endArrow=none;startArrow=classic;html=1;rounded=0;strokeWidth=2;exitX=0.75;exitY=0;exitDx=0;exitDy=0;endFill=0;" edge="1" parent="1" source="-tW-aOK4IKs2jvc2aL33-2" target="fQcaslo3YwZfLJPk02mK-38">
          <mxGeometry width="50" height="50" relative="1" as="geometry">
            <mxPoint y="460" as="sourcePoint" />
            <mxPoint x="159" y="302" as="targetPoint" />
            <Array as="points">
              <mxPoint x="240" y="440" />
            </Array>
          </mxGeometry>
        </mxCell>
        <mxCell id="-tW-aOK4IKs2jvc2aL33-46" value="data" style="edgeLabel;html=1;align=center;verticalAlign=middle;resizable=0;points=[];" vertex="1" connectable="0" parent="-tW-aOK4IKs2jvc2aL33-20">
          <mxGeometry x="-0.114" y="1" relative="1" as="geometry">
            <mxPoint as="offset" />
          </mxGeometry>
        </mxCell>
        <mxCell id="-tW-aOK4IKs2jvc2aL33-21" value="" style="endArrow=none;startArrow=classic;html=1;rounded=0;entryX=0.5;entryY=0;entryDx=0;entryDy=0;strokeWidth=2;exitX=1.005;exitY=0.517;exitDx=0;exitDy=0;endFill=0;exitPerimeter=0;" edge="1" parent="1" source="fQcaslo3YwZfLJPk02mK-38" target="fQcaslo3YwZfLJPk02mK-11">
          <mxGeometry width="50" height="50" relative="1" as="geometry">
            <mxPoint x="341.78999999999996" y="430" as="sourcePoint" />
            <mxPoint x="446.78999999999996" y="190" as="targetPoint" />
            <Array as="points">
              <mxPoint x="402" y="440" />
            </Array>
          </mxGeometry>
        </mxCell>
        <mxCell id="-tW-aOK4IKs2jvc2aL33-45" value="data" style="edgeLabel;html=1;align=center;verticalAlign=middle;resizable=0;points=[];" vertex="1" connectable="0" parent="-tW-aOK4IKs2jvc2aL33-21">
          <mxGeometry x="0.0001" y="-2" relative="1" as="geometry">
            <mxPoint as="offset" />
          </mxGeometry>
        </mxCell>
        <mxCell id="-tW-aOK4IKs2jvc2aL33-22" value="" style="endArrow=classic;startArrow=classic;html=1;rounded=0;entryX=0.5;entryY=1;entryDx=0;entryDy=0;exitX=0.25;exitY=0;exitDx=0;exitDy=0;strokeWidth=2;" edge="1" parent="1" source="-tW-aOK4IKs2jvc2aL33-2" target="-tW-aOK4IKs2jvc2aL33-1">
          <mxGeometry width="50" height="50" relative="1" as="geometry">
            <mxPoint x="110" y="450" as="sourcePoint" />
            <mxPoint x="160" y="400" as="targetPoint" />
          </mxGeometry>
        </mxCell>
        <mxCell id="-tW-aOK4IKs2jvc2aL33-47" value="backup" style="edgeLabel;html=1;align=center;verticalAlign=middle;resizable=0;points=[];" vertex="1" connectable="0" parent="-tW-aOK4IKs2jvc2aL33-22">
          <mxGeometry x="-0.2122" y="-2" relative="1" as="geometry">
            <mxPoint as="offset" />
          </mxGeometry>
        </mxCell>
        <mxCell id="-tW-aOK4IKs2jvc2aL33-23" style="edgeStyle=orthogonalEdgeStyle;rounded=0;orthogonalLoop=1;jettySize=auto;html=1;exitX=0.5;exitY=1;exitDx=0;exitDy=0;" edge="1" parent="1" source="fQcaslo3YwZfLJPk02mK-14" target="fQcaslo3YwZfLJPk02mK-14">
          <mxGeometry relative="1" as="geometry" />
        </mxCell>
        <mxCell id="-tW-aOK4IKs2jvc2aL33-25" value="" style="endArrow=classic;html=1;rounded=0;strokeWidth=2;entryX=0.13;entryY=1.005;entryDx=0;entryDy=0;entryPerimeter=0;dashed=1;" edge="1" parent="1" source="-tW-aOK4IKs2jvc2aL33-3" target="-tW-aOK4IKs2jvc2aL33-4">
          <mxGeometry width="50" height="50" relative="1" as="geometry">
            <mxPoint x="300" y="710" as="sourcePoint" />
            <mxPoint x="240" y="670" as="targetPoint" />
          </mxGeometry>
        </mxCell>
        <mxCell id="-tW-aOK4IKs2jvc2aL33-48" value="triggers" style="edgeLabel;html=1;align=center;verticalAlign=middle;resizable=0;points=[];" vertex="1" connectable="0" parent="-tW-aOK4IKs2jvc2aL33-25">
          <mxGeometry x="-0.1491" y="1" relative="1" as="geometry">
            <mxPoint as="offset" />
          </mxGeometry>
        </mxCell>
        <mxCell id="-tW-aOK4IKs2jvc2aL33-32" value="docker" style="text;html=1;align=center;verticalAlign=middle;resizable=0;points=[];autosize=1;strokeColor=none;fillColor=none;" vertex="1" parent="1">
          <mxGeometry x="429.99999999999994" y="730" width="60" height="30" as="geometry" />
        </mxCell>
        <mxCell id="-tW-aOK4IKs2jvc2aL33-34" value="storageshare" style="text;html=1;align=center;verticalAlign=middle;resizable=0;points=[];autosize=1;strokeColor=none;fillColor=none;" vertex="1" parent="1">
          <mxGeometry x="520" y="311" width="90" height="30" as="geometry" />
        </mxCell>
        <mxCell id="-tW-aOK4IKs2jvc2aL33-35" value="storagebox" style="text;html=1;align=center;verticalAlign=middle;resizable=0;points=[];autosize=1;strokeColor=none;fillColor=none;" vertex="1" parent="1">
          <mxGeometry x="65" y="311" width="80" height="30" as="geometry" />
        </mxCell>
        <mxCell id="-tW-aOK4IKs2jvc2aL33-38" value="user" style="sketch=0;outlineConnect=0;fontColor=#232F3E;gradientColor=none;fillColor=#232F3D;strokeColor=none;dashed=0;verticalLabelPosition=bottom;verticalAlign=top;align=center;html=1;fontSize=12;fontStyle=0;aspect=fixed;pointerEvents=1;shape=mxgraph.aws4.user;" vertex="1" parent="1">
          <mxGeometry x="341.78999999999996" y="850" width="78" height="78" as="geometry" />
        </mxCell>
        <mxCell id="-tW-aOK4IKs2jvc2aL33-42" value="" style="endArrow=classic;html=1;rounded=0;strokeWidth=2;entryX=0.5;entryY=0;entryDx=0;entryDy=0;dashed=1;exitX=0.75;exitY=1;exitDx=0;exitDy=0;" edge="1" parent="1" source="-tW-aOK4IKs2jvc2aL33-4" target="-tW-aOK4IKs2jvc2aL33-37">
          <mxGeometry width="50" height="50" relative="1" as="geometry">
            <mxPoint x="250" y="749" as="sourcePoint" />
            <mxPoint x="250" y="700" as="targetPoint" />
          </mxGeometry>
        </mxCell>
        <mxCell id="-tW-aOK4IKs2jvc2aL33-49" value="status" style="edgeLabel;html=1;align=center;verticalAlign=middle;resizable=0;points=[];" vertex="1" connectable="0" parent="-tW-aOK4IKs2jvc2aL33-42">
          <mxGeometry x="0.2794" relative="1" as="geometry">
            <mxPoint as="offset" />
          </mxGeometry>
        </mxCell>
        <mxCell id="-tW-aOK4IKs2jvc2aL33-43" value="" style="endArrow=classic;html=1;rounded=0;exitX=0.5;exitY=1;exitDx=0;exitDy=0;strokeWidth=2;dashed=1;" edge="1" parent="1" source="-tW-aOK4IKs2jvc2aL33-37" target="-tW-aOK4IKs2jvc2aL33-38">
          <mxGeometry width="50" height="50" relative="1" as="geometry">
            <mxPoint x="200" y="914" as="sourcePoint" />
            <mxPoint x="250" y="864" as="targetPoint" />
          </mxGeometry>
        </mxCell>
        <mxCell id="-tW-aOK4IKs2jvc2aL33-50" value="status" style="edgeLabel;html=1;align=center;verticalAlign=middle;resizable=0;points=[];" vertex="1" connectable="0" parent="-tW-aOK4IKs2jvc2aL33-43">
          <mxGeometry x="-0.1631" y="2" relative="1" as="geometry">
            <mxPoint as="offset" />
          </mxGeometry>
        </mxCell>
        <mxCell id="-tW-aOK4IKs2jvc2aL33-37" value="" style="shape=image;html=1;verticalAlign=top;verticalLabelPosition=bottom;labelBackgroundColor=#ffffff;imageAspect=0;aspect=fixed;image=https://cdn1.iconfinder.com/data/icons/unicons-line-vol-6/24/telegram-128.png" vertex="1" parent="1">
          <mxGeometry x="353.78999999999996" y="690" width="50" height="50" as="geometry" />
        </mxCell>
        <mxCell id="-tW-aOK4IKs2jvc2aL33-52" value="run_backup.sh" style="rounded=0;whiteSpace=wrap;html=1;fillColor=#ffe6cc;strokeColor=#d79b00;" vertex="1" parent="1">
          <mxGeometry x="574" y="670" width="90" height="40" as="geometry" />
        </mxCell>
        <mxCell id="-tW-aOK4IKs2jvc2aL33-53" value=".env" style="shape=note;whiteSpace=wrap;html=1;backgroundOutline=1;darkOpacity=0.05;size=19;fillColor=#f5f5f5;fontColor=#333333;strokeColor=#666666;" vertex="1" parent="1">
          <mxGeometry x="594" y="560" width="50" height="65" as="geometry" />
        </mxCell>
        <mxCell id="-tW-aOK4IKs2jvc2aL33-56" value="start" style="endArrow=classic;html=1;rounded=0;exitX=0;exitY=0.5;exitDx=0;exitDy=0;entryX=1;entryY=0.75;entryDx=0;entryDy=0;strokeWidth=2;" edge="1" parent="1" source="-tW-aOK4IKs2jvc2aL33-52" target="fQcaslo3YwZfLJPk02mK-14">
          <mxGeometry width="50" height="50" relative="1" as="geometry">
            <mxPoint x="535" y="695" as="sourcePoint" />
            <mxPoint x="585" y="645" as="targetPoint" />
          </mxGeometry>
        </mxCell>
        <mxCell id="-tW-aOK4IKs2jvc2aL33-60" value="uses" style="endArrow=classic;html=1;rounded=0;entryX=0.5;entryY=1;entryDx=0;entryDy=0;entryPerimeter=0;strokeWidth=2;" edge="1" parent="1" source="-tW-aOK4IKs2jvc2aL33-52" target="-tW-aOK4IKs2jvc2aL33-53">
          <mxGeometry width="50" height="50" relative="1" as="geometry">
            <mxPoint x="574" y="790" as="sourcePoint" />
            <mxPoint x="624" y="740" as="targetPoint" />
          </mxGeometry>
        </mxCell>
        <mxCell id="-tW-aOK4IKs2jvc2aL33-61" value="start run_backup.sh" style="endArrow=classic;html=1;rounded=0;entryX=0.5;entryY=1;entryDx=0;entryDy=0;strokeWidth=2;dashed=1;" edge="1" parent="1" source="-tW-aOK4IKs2jvc2aL33-38" target="-tW-aOK4IKs2jvc2aL33-52">
          <mxGeometry width="50" height="50" relative="1" as="geometry">
            <mxPoint x="480" y="914" as="sourcePoint" />
            <mxPoint x="530" y="864" as="targetPoint" />
            <Array as="points">
              <mxPoint x="619" y="890" />
            </Array>
          </mxGeometry>
        </mxCell>
      </root>
    </mxGraphModel>
  </diagram>
</mxfile>
